<?xml version="1.0" encoding="utf-8"?>
<!-- Generator: Adobe Illustrator 16.0.0, SVG Export Plug-In . SVG Version: 6.00 Build 0)  -->
<!DOCTYPE svg PUBLIC "-//W3C//DTD SVG 1.1//EN" "http://www.w3.org/Graphics/SVG/1.1/DTD/svg11.dtd">
<svg version="1.1" xmlns="http://www.w3.org/2000/svg" xmlns:xlink="http://www.w3.org/1999/xlink" x="0px" y="0px" width="99px"
	 height="96.667px" viewBox="0 0 99 96.667" enable-background="new 0 0 99 96.667" xml:space="preserve">
<g id="Layer_2" display="none">
	<polygon display="inline" stroke="#FFFFFF" stroke-width="2" stroke-miterlimit="10" points="-53.001,17.333 175.67,-88.739 
		347.213,95.962 224.562,316.186 -22.785,267.59 	"/>
</g>
<g id="Самолет">
	<polygon fill="#174799" stroke="#FFFFFF" stroke-width="2" stroke-miterlimit="10" points="40.75,40.25 58.25,40.25 76,76.25 
		22,76.25 	"/>
	<path fill="#174799" stroke="#FFFFFF" stroke-width="2" stroke-miterlimit="10" d="M86.375,30.7c0-5-9.25-4.5-9.25,0s0,27,0,27
		h9.25C86.375,57.7,86.375,35.7,86.375,30.7z"/>
	<path fill="#174799" stroke="#FFFFFF" stroke-width="2" stroke-miterlimit="10" d="M22,30.7c0-5-9.25-4.5-9.25,0s0,27,0,27H22
		C22,57.7,22,35.7,22,30.7z"/>
	<polygon fill="#174799" stroke="#FFFFFF" stroke-width="2" stroke-miterlimit="10" points="4.25,39.7 4.948,40.164 31.375,57.7 
		40.75,39.7 	"/>
	<polygon fill="#174799" stroke="#FFFFFF" stroke-width="2" stroke-miterlimit="10" points="94,39.7 58.25,39.7 67.125,57.7 	"/>
	<polygon fill="#174799" stroke="#FFFFFF" stroke-width="2" stroke-miterlimit="10" points="31,76.375 67.5,76.375 58.25,85.375 
		67.5,94.625 31,94.625 39.5,85.5 	"/>
	<polygon fill="#174799" stroke="#FFFFFF" stroke-width="2" stroke-miterlimit="10" points="30.75,39.475 67,39.475 48.875,3.725 	
		"/>
</g>
</svg>
